<?xml version="1.0" encoding="UTF-8"?>
<svg width="100px" height="100px" viewBox="0 0 100 100" version="1.1" xmlns="http://www.w3.org/2000/svg" xmlns:xlink="http://www.w3.org/1999/xlink">
    <title>编组 21</title>
    <g id="页面-1" stroke="none" stroke-width="1" fill="none" fill-rule="evenodd">
        <g id="桌面" transform="translate(-765.000000, -328.000000)">
            <g id="编组-16" transform="translate(155.000000, 110.000000)">
                <g id="编组-28" transform="translate(610.000000, 218.000000)">
                    <g id="编组-25备份" fill="#FFFFFF">
                        <rect id="矩形备份-35" x="0" y="0" width="100" height="100" rx="24"></rect>
                    </g>
                    <g id="编组-26" transform="translate(23.000000, 15.000000)">
                        <path d="M56.1469233,39.1157028 L6.53079293,69.9119216 C4.52437327,71.1572856 1.88828183,70.540328 0.64291791,68.5339083 C0.22267956,67.8568577 0,67.075845 0,66.2789775 L0,4.68653977 C0,2.32504636 1.91436866,0.410677699 4.27586207,0.410677699 C5.07272962,0.410677699 5.85374225,0.633357259 6.53079293,1.05359561 L56.1469233,31.8498145 C58.153343,33.0951784 58.7703005,35.7312698 57.5249366,37.7376895 C57.1777938,38.2969751 56.7062089,38.76856 56.1469233,39.1157028 Z" id="三角形" fill="#432AB2"></path>
                        <path d="M31,16.2413793 L4.393918,32.7000688 C2.88769892,33.6318254 2.42200505,35.6081951 3.35376164,37.1144142 C3.61348859,37.5342725 3.96664717,37.8884949 4.38572228,38.1494836 L31,54.7241379 L31,16.2413793 Z" id="路径-6" fill="#FF00BF"></path>
                    </g>
                    <path d="M54,31.2413793 L79.1469233,46.8498145 C81.153343,48.0951784 81.7703005,50.7312698 80.5249366,52.7376895 C80.1777938,53.2969751 79.7062089,53.76856 79.1469233,54.1157028 L54,69.7233793 L54,31.2413793 Z" id="路径" fill="#00E9FF"></path>
                </g>
            </g>
        </g>
    </g>
</svg>